<svg width="512" height="512" viewBox="0 0 512 512" xmlns="http://www.w3.org/2000/svg" role="img" aria-label="BarcoStop icon source">
  <defs>
    <linearGradient id="bg" x1="0" y1="0" x2="1" y2="1">
      <stop offset="0%" stop-color="#0B4F8A"/>
      <stop offset="100%" stop-color="#0DA6C2"/>
    </linearGradient>
    <linearGradient id="sail" x1="0" y1="0" x2="1" y2="1">
      <stop offset="0%" stop-color="#FFFFFF"/>
      <stop offset="100%" stop-color="#DDF5FF"/>
    </linearGradient>
    <linearGradient id="hull" x1="0" y1="0" x2="1" y2="0">
      <stop offset="0%" stop-color="#F6B200"/>
      <stop offset="100%" stop-color="#FF7A1A"/>
    </linearGradient>
  </defs>

  <rect width="512" height="512" fill="url(#bg)"/>

  <circle cx="392" cy="120" r="34" fill="#FFFFFF" fill-opacity="0.2"/>
  <circle cx="120" cy="88" r="22" fill="#FFFFFF" fill-opacity="0.14"/>

  <g transform="translate(58 86)">
    <path d="M48 292c50-28 95-43 142-43 46 0 91 15 142 43" fill="none" stroke="#C6F2FF" stroke-opacity="0.7" stroke-width="14" stroke-linecap="round"/>
    <path d="M30 320c56-32 108-48 160-48 52 0 104 16 160 48" fill="none" stroke="#9AE6F6" stroke-opacity="0.55" stroke-width="12" stroke-linecap="round"/>

    <path d="M206 58v190" stroke="#FFFFFF" stroke-opacity="0.94" stroke-width="12" stroke-linecap="round"/>

    <path d="M208 74l-6 156 118-79z" fill="url(#sail)"/>
    <path d="M196 96l4 122-96-64z" fill="#FFFFFF" fill-opacity="0.92"/>

    <path d="M74 246c42 17 83 25 124 25 41 0 82-8 124-25-10 34-35 58-65 66-17 5-38 8-59 8-21 0-42-3-59-8-30-8-55-32-65-66z" fill="url(#hull)"/>

    <circle cx="140" cy="258" r="8" fill="#08304C" fill-opacity="0.55"/>
    <circle cx="273" cy="258" r="8" fill="#08304C" fill-opacity="0.55"/>
  </g>
</svg>
