<svg width="1024" height="500" viewBox="0 0 1024 500" xmlns="http://www.w3.org/2000/svg" role="img" aria-label="BarcoStop feature graphic minimal sailboat">
  <defs>
    <linearGradient id="bg" x1="0" y1="0" x2="1" y2="0">
      <stop offset="0%" stop-color="#22C55E"/>
      <stop offset="100%" stop-color="#16A34A"/>
    </linearGradient>
  </defs>

  <rect width="1024" height="500" fill="url(#bg)"/>

  <g transform="translate(86 120)">
    <text x="0" y="64" fill="#FFFFFF" font-size="92" font-family="Segoe UI, Arial, sans-serif" font-weight="800">BarcoStop</text>
    <text x="0" y="116" fill="#EAFBEF" font-size="32" font-family="Segoe UI, Arial, sans-serif" font-weight="600">Comparte viajes en barco</text>
    <rect x="0" y="136" width="330" height="8" rx="4" fill="#0F172A"/>
  </g>

  <g transform="translate(714 96)">
    <circle cx="124" cy="124" r="124" fill="#000000" fill-opacity="0.12"/>
    <path d="M120 52v132" stroke="#FFFFFF" stroke-width="8" stroke-linecap="round"/>
    <path d="M124 64l-5 96 76-50z" fill="#FFFFFF"/>
    <path d="M112 80l4 76-60-40z" fill="#EAFBEF"/>
    <path d="M42 178c28 10 55 15 82 15s54-5 82-15c-7 20-21 34-40 39-13 4-28 6-42 6s-29-2-42-6c-19-5-33-19-40-39z" fill="#0F172A"/>
  </g>
</svg>
